<?xml version="1.0" encoding="UTF-8"?>
<!--Generator: Apple Native CoreSVG 232.5-->
<!DOCTYPE svg
PUBLIC "-//W3C//DTD SVG 1.1//EN"
       "http://www.w3.org/Graphics/SVG/1.1/DTD/svg11.dtd">
<svg version="1.1" xmlns="http://www.w3.org/2000/svg" xmlns:xlink="http://www.w3.org/1999/xlink" width="40.1262" height="39.7585">
 <g>
  <rect height="39.7585" opacity="0" width="40.1262" x="0" y="0"/>
  <path d="M19.869 39.7585C30.8165 39.7585 39.7571 30.8179 39.7571 19.8895C39.7571 8.96253 30.8151 0.0205078 19.8676 0.0205078C8.94059 0.0205078 0 8.96253 0 19.8895C0 30.8179 8.94203 39.7585 19.869 39.7585Z" fill="#1436c7"/>
  <path d="M16.2116 11.2488C16.2116 9.21212 17.8529 7.57375 19.869 7.57375C21.9056 7.57375 23.5454 9.21212 23.5454 11.2488C23.5454 13.0998 22.1671 14.5993 20.3524 14.8684L20.3524 29.7622C20.3524 31.6997 20.0905 32.5201 19.869 32.5201C19.6489 32.5201 19.4033 31.6764 19.4033 29.7622L19.4033 14.8684C17.59 14.5979 16.2116 13.0984 16.2116 11.2488ZM17.6535 10.2853C17.6917 10.953 18.2569 11.5373 18.9423 11.5373C19.6114 11.5373 20.137 10.953 20.1561 10.2853C20.1943 9.57798 19.6114 8.99371 18.9423 8.99371C18.2569 8.99371 17.633 9.57798 17.6535 10.2853Z" fill="#ffffff"/>
 </g>
</svg>
