<?xml version="1.0" encoding="UTF-8"?>
<!--Generator: Apple Native CoreSVG 232.5-->
<!DOCTYPE svg
PUBLIC "-//W3C//DTD SVG 1.1//EN"
       "http://www.w3.org/Graphics/SVG/1.1/DTD/svg11.dtd">
<svg version="1.1" xmlns="http://www.w3.org/2000/svg" xmlns:xlink="http://www.w3.org/1999/xlink" width="38.235" height="37.8653">
 <g>
  <rect height="37.8653" opacity="0" width="38.235" x="0" y="0"/>
  <path d="M37.8639 18.9424C37.8639 29.3504 29.349 37.8653 18.9229 37.8653C8.51622 37.8653 0 29.3504 0 18.9424C0 8.53575 8.51485 0.0195312 18.9215 0.0195312C29.3477 0.0195312 37.8639 8.53575 37.8639 18.9424ZM15.4396 10.7131C15.4396 12.4746 16.7523 13.9028 18.4793 14.1604L18.4793 28.3449C18.4793 30.168 18.7133 30.9715 18.9229 30.9715C19.1338 30.9715 19.3832 30.1902 19.3832 28.3449L19.3832 14.1604C21.1115 13.9041 22.4242 12.476 22.4242 10.7131C22.4242 8.77345 20.8625 7.21309 18.9229 7.21309C17.0027 7.21309 15.4396 8.77345 15.4396 10.7131ZM19.1963 9.79552C19.1781 10.4315 18.6775 10.9879 18.0402 10.9879C17.3875 10.9879 16.8492 10.4315 16.8129 9.79552C16.7934 9.12189 17.3875 8.56544 18.0402 8.56544C18.6775 8.56544 19.2326 9.12189 19.1963 9.79552Z" fill="#1436c7"/>
 </g>
</svg>
