<svg fill="none" height="24" viewBox="0 0 24 24" width="24" xmlns="http://www.w3.org/2000/svg"><g fill="#000"><path d="m2.25009 2c0-.41421.33579-.75.75-.75 3.96286 0 5.84011 2.02623 6.49003 3.68751.59968-.23998 1.33388-.45053 2.11868-.53346 1.227-.12965 2.6561.04725 3.8598 1.01023.3235.25876.3759.73073.1171 1.05417-.2587.32344-.7307.37588-1.0541.11712-.7963-.63707-1.7839-.79351-2.7652-.68982-.4441.04693-.871.14602-1.2523.26722.4024.3436.8127.75902 1.1721 1.23515.7267.96271 1.2994 2.25103 1.0537 3.72518-.0681.4085-.4545.6846-.8631.6165s-.6846-.4545-.6165-.8631c.1543-.9259-.1896-1.80427-.7713-2.57491-.4329-.57345-.96721-1.04432-1.42263-1.36823-.50377.50043-.95865 1.20748-1.35885 2.0853-.49545 1.08674-.88137 2.37804-1.17452 3.72774-.56722 2.6116-.76954 5.3587-.78226 7.0809.42615.0725.84317.2193 1.23125.441l.40178.2296c.69172.3953 1.5409.3953 2.23262 0l.52321-.2989c1.1528-.6588 2.5681-.6588 3.721 0l.5232.2989c.6917.3953 1.5409.3953 2.2326 0l.4018-.2296c1.2332-.7047 2.7588-.6521 3.9406.1358l1.4573.9715c.3447.2298.4378.6954.208 1.04-.2297.3447-.6954.4378-1.04.2081l-1.4573-.9716c-.7091-.4727-1.6245-.5042-2.3644-.0814l-.4018.2296c-1.1529.6588-2.5682.6588-3.721 0l-.5232-.299c-.6917-.3952-1.5409-.3952-2.2326 0l-.5232.299c-1.15287.6588-2.56817.6588-3.72104 0l-.40177-.2296c-.73995-.4228-1.65529-.3913-2.36439.0814l-1.4573.9716c-.34464.2297-.8103.1366-1.04006-.2081-.22976-.3446-.13663-.8102.20801-1.04l1.4573-.9715c.37516-.2502.78496-.4262 1.20905-.5274.00909-1.8028.21717-4.6879.81678-7.4486.30685-1.4128.72093-2.81527 1.27548-4.03167.33261-.72957.72538-1.41364 1.19182-1.99661-.47478-.07508-1.02097-.11658-1.59791-.08849-1.16895.05693-2.41421.39611-3.45634 1.26456-.31821.26517-.79113.22218-1.05631-.09603-.26517-.31821-.22218-.79113.09603-1.05631 1.35787-1.13155 2.94594-1.54237 4.34366-1.61044.70069-.03413 1.36611.017 1.95078.11246-.62981-1.02578-2.02273-2.17577-4.8143-2.17577-.41421 0-.75-.33579-.75-.75z"/><path d="m18.3356 9.32922c-.3705-.18524-.821-.03507-1.0062.33541-.1853.37047-.0351.82097.3354 1.00617.7203.3602 1.3044.9443 1.6646 1.6646.1852.3705.6357.5207 1.0062.3354.1533-.0766.2688-.1986.3385-.3416.3605-.7175.9432-1.2992 1.6615-1.6584.3705-.1852.5207-.6357.3354-1.00617-.1852-.37048-.6357-.52065-1.0062-.33541-.6427.32136-1.2081.76978-1.6646 1.31358-.4565-.5438-1.0219-.99222-1.6646-1.31358z"/><path d="m12.3294 13.6647c.1852-.3705.6357-.5207 1.0062-.3354.6427.3213 1.2081.7698 1.6646 1.3136.4565-.5438 1.0219-.9923 1.6646-1.3136.3705-.1853.821-.0351 1.0062.3354.1853.3705.0351.821-.3354 1.0062-.7183.3592-1.301.9409-1.6615 1.6584-.0697.143-.1852.265-.3385.3416-.3705.1853-.821.0351-1.0062-.3354-.3602-.7203-.9443-1.3044-1.6646-1.6646-.3705-.1852-.5207-.6357-.3354-1.0062z"/><path d="m19.3356 15.8293c-.3705-.1853-.821-.0351-1.0062.3354-.1853.3705-.0351.821.3354 1.0062.504.252.9126.6606 1.1646 1.1646.1852.3705.6357.5207 1.0062.3354.1532-.0766.2688-.1986.3385-.3415.2522-.5011.6596-.9075 1.1615-1.1585.3705-.1852.5207-.6357.3354-1.0062-.1852-.3705-.6357-.5207-1.0062-.3354-.4397.2198-.8334.5154-1.1646.8701-.3312-.3547-.7249-.6503-1.1646-.8701z"/></g></svg>